<svg xmlns="http://www.w3.org/2000/svg" width="32" height="32" viewBox="0 0 32 32"><title>dhi-neg-tag</title><path d="M16.624 10.784h-1.952v3.04l-3.584 1.408v-4.448H9.136v8.864h1.952v-2.624l3.584-1.408v4.032h1.952zm1.232 8.864h1.92v-6.304l-1.92.752zM3.648 10.784H.192v8.848h3.456c2.784 0 4.704-1.936 4.704-4.432 0-2.496-1.92-4.416-4.704-4.416zm2.672 4.464c0 1.568-1.072 2.64-2.672 2.64H2.144v-5.344h1.504c1.6 0 2.672 1.104 2.672 2.672v.032zm11.456-2.544v-1.968l4.752-1.856v1.968l-4.752 1.856zm.16-1.856v1.616l4.432-1.728V9.12l-4.432 1.728zm-7.728 10.32v1.52h-.176l-.032-.16c-.064.128-.208.176-.352.176-.32 0-.528-.24-.528-.56 0-.304.192-.56.528-.56.096 0 .24.016.336.16v-.576h.224zm-.848.976c0 .224.128.368.32.368s.336-.16.336-.368-.128-.368-.336-.368c-.192 0-.32.144-.32.368zm1.632-.56c.336 0 .496.24.496.544v.096h-.816c.016.176.16.288.352.288.144 0 .24-.032.32-.08l.08.176c-.096.064-.256.096-.416.096-.352 0-.592-.24-.592-.56.032-.304.256-.56.576-.56zm.288.48c0-.144-.08-.288-.272-.288-.176 0-.304.112-.336.288h.608zm.688-.896v1.264c0 .096.064.096.096.096.048 0 .096-.016.096-.016v.176c-.032.016-.112.016-.176.016-.208 0-.224-.144-.24-.256v-1.28h.224zm.688.432v1.088h-.224v-.88l-.112-.048v-.16h.336zm.016-.288c0 .08-.064.128-.144.128s-.128-.064-.128-.128c0-.08.064-.128.128-.128.08 0 .144.048.144.128zm1.216.288l-.368 1.088h-.256l-.368-1.088h.224l.256.832.256-.832h.256zm.64-.016c.336 0 .496.24.496.544v.096h-.816c.016.176.16.288.352.288.144 0 .24-.032.32-.08l.08.176c-.096.064-.256.096-.416.096-.352 0-.592-.24-.592-.56.032-.304.256-.56.576-.56zm.288.48c0-.144-.08-.288-.272-.288-.176 0-.304.112-.336.288h.608zm.624-.464l.032.192c.048-.128.144-.208.336-.208h.016v.192h-.032c-.176 0-.32.064-.32.32v.576h-.224V21.6h.192zm.88 0v1.088h-.224v-.88l-.128-.032v-.16h.352zm.016-.288c0 .08-.064.128-.144.128s-.128-.064-.128-.128c0-.08.064-.128.128-.128.08 0 .144.048.144.128zm.464.288l.032.192c0-.016.096-.208.352-.208.224 0 .4.128.4.464v.64h-.224v-.64c0-.176-.096-.272-.24-.272-.176 0-.272.144-.272.304v.592h-.224V21.6h.176zm1.136.944c-.08-.048-.112-.112-.112-.176 0-.096.064-.144.112-.176a.29.29 0 0 1-.096-.224c0-.224.16-.368.432-.368.048 0 .096 0 .144.016h.384v.16l-.144.032c.032.016.064.096.064.176 0 .256-.224.352-.432.352a.493.493 0 0 1-.208-.048c-.032.016-.064.048-.064.08 0 .128.256.112.368.112.224 0 .368.08.368.272 0 .24-.256.304-.48.304s-.48-.064-.48-.288a.392.392 0 0 1 .144-.224zm.096.192c0 .096.16.128.272.128s.272-.016.272-.128c0-.064-.048-.096-.176-.096-.192 0-.208 0-.288-.016-.048 0-.08.048-.08.112zm.032-.784c0 .128.08.208.224.208s.224-.08.224-.208-.08-.208-.224-.208c-.144.016-.224.096-.224.208zm1.712-.784v.592c.032-.064.128-.176.336-.176.224 0 .4.128.4.464v.64h-.224v-.64c0-.176-.096-.272-.24-.272-.192 0-.272.144-.272.304v.592h-.224v-1.52h.224zm1.312.432v1.088h-.224v-.88l-.128-.032v-.16h.352zm0-.288c0 .08-.064.128-.144.128s-.128-.064-.128-.128c0-.08.064-.128.128-.128.096 0 .144.048.144.128zm.48.288l.032.192c.048-.128.144-.208.336-.208h.016v.192h-.032c-.176 0-.32.064-.32.32v.576h-.224V21.6h.192zm1.04-.016c.336 0 .496.24.496.544v.096h-.816c.016.176.16.288.352.288.144 0 .24-.032.32-.08l.08.176c-.096.064-.256.096-.416.096-.352 0-.592-.24-.592-.56.032-.304.256-.56.576-.56zm.288.48c0-.144-.08-.288-.272-.288-.176 0-.304.112-.336.288h.608zm1.28-.464v1.088h-.224v-.88l-.112-.048v-.16h.336zm.016-.288c0 .08-.064.128-.144.128s-.128-.064-.128-.128c0-.08.064-.128.128-.128.08 0 .144.048.144.128zm.464.288l.032.192c0-.016.096-.208.352-.208.224 0 .4.128.4.464v.64h-.224v-.64c0-.176-.096-.272-.24-.272-.176 0-.272.144-.272.304v.592h-.224V21.6h.176zm1.024 1.024l.032-.16c.048.016.192.08.336.08.176 0 .224-.048.224-.144 0-.208-.592-.096-.592-.496 0-.208.192-.304.384-.304.144 0 .288.032.368.08l-.032.16s-.176-.064-.32-.064-.208.048-.208.128c0 .208.608.08.608.496 0 .224-.176.32-.416.32a1.668 1.668 0 0 1-.384-.096zm1.312-1.024v1.088h-.224v-.88l-.128-.032v-.16h.352zm.016-.288c0 .08-.064.128-.144.128s-.128-.064-.128-.128c0-.08.064-.128.128-.128.08 0 .144.048.144.128zm.352 1.232c-.08-.048-.112-.112-.112-.176 0-.096.064-.144.112-.176a.29.29 0 0 1-.096-.224c0-.224.16-.368.432-.368.048 0 .096 0 .144.016h.384v.16l-.144.032c.032.016.064.096.064.176 0 .256-.224.352-.432.352a.493.493 0 0 1-.208-.048c-.032.016-.064.048-.064.08 0 .128.256.112.368.112.224 0 .368.08.368.272 0 .24-.256.304-.48.304s-.48-.064-.48-.288a.392.392 0 0 1 .144-.224zm.096.192c0 .096.16.128.272.128s.272-.016.272-.128c0-.064-.048-.096-.176-.096-.192 0-.208 0-.288-.016-.048 0-.08.048-.08.112zm.032-.784c0 .128.08.208.224.208s.224-.08.224-.208-.08-.208-.224-.208c-.144.016-.224.096-.224.208zm1.168-.784v.592c.032-.064.128-.176.336-.176.224 0 .4.128.4.464v.64h-.224v-.64c0-.176-.096-.272-.24-.272-.192 0-.272.144-.272.304v.592h-.224v-1.52h.224zm1.28.128v.304h.288v.16h-.288v.608c0 .112.032.16.144.16.048 0 .096-.016.128-.016l.016.16c-.064.016-.112.048-.208.048-.224 0-.304-.112-.304-.352v-.608h-.144v-.128l.144-.016.032-.32h.192zm.432 1.328l.032-.16c.048.016.192.08.336.08.176 0 .224-.048.224-.144 0-.208-.592-.096-.592-.496 0-.208.192-.304.384-.304.144 0 .288.032.368.08l-.032.16s-.176-.064-.32-.064-.208.048-.208.128c0 .208.608.08.608.496 0 .224-.176.32-.416.32a1.668 1.668 0 0 1-.384-.096zm1.296-.064c0 .08-.064.128-.144.128s-.128-.064-.128-.128.064-.128.128-.128c.08 0 .144.048.144.128z"/></svg>