<!-- Generated by IcoMoon.io -->
<svg version="1.1" xmlns="http://www.w3.org/2000/svg" width="32" height="32" viewBox="0 0 32 32">
<title>dhi-neg-tag</title>
<path d="M16.624 10.784h-1.952v3.040l-3.584 1.408v-4.448h-1.952v8.864h1.952v-2.624l3.584-1.408v4.032h1.952zM17.856 19.648h1.92v-6.304l-1.92 0.752zM3.648 10.784h-3.456v8.848h3.456c2.784 0 4.704-1.936 4.704-4.432v0c0-2.496-1.92-4.416-4.704-4.416zM6.32 15.248c0 1.568-1.072 2.64-2.672 2.64h-1.504v-5.344h1.504c1.6 0 2.672 1.104 2.672 2.672v0.032zM17.776 12.704v-1.968l4.752-1.856v1.968l-4.752 1.856zM17.936 10.848v1.616l4.432-1.728v-1.616l-4.432 1.728zM10.208 21.168v1.52h-0.176l-0.032-0.16c-0.064 0.128-0.208 0.176-0.352 0.176-0.32 0-0.528-0.24-0.528-0.56 0-0.304 0.192-0.56 0.528-0.56 0.096 0 0.24 0.016 0.336 0.16v-0.576h0.224zM9.36 22.144c0 0.224 0.128 0.368 0.32 0.368s0.336-0.16 0.336-0.368c0-0.208-0.128-0.368-0.336-0.368-0.192 0-0.32 0.144-0.32 0.368zM10.992 21.584c0.336 0 0.496 0.24 0.496 0.544 0 0.032 0 0.064 0 0.096h-0.816c0.016 0.176 0.16 0.288 0.352 0.288 0.144 0 0.24-0.032 0.32-0.080l0.080 0.176c-0.096 0.064-0.256 0.096-0.416 0.096-0.352 0-0.592-0.24-0.592-0.56 0.032-0.304 0.256-0.56 0.576-0.56zM11.28 22.064c0-0.144-0.080-0.288-0.272-0.288-0.176 0-0.304 0.112-0.336 0.288h0.608zM11.968 21.168v1.264c0 0.096 0.064 0.096 0.096 0.096 0.048 0 0.096-0.016 0.096-0.016v0.176c-0.032 0.016-0.112 0.016-0.176 0.016-0.208 0-0.224-0.144-0.24-0.256v-1.28h0.224zM12.656 21.6v1.088h-0.224v-0.88l-0.112-0.048v-0.16h0.336zM12.672 21.312c0 0.080-0.064 0.128-0.144 0.128s-0.128-0.064-0.128-0.128c0-0.080 0.064-0.128 0.128-0.128 0.080 0 0.144 0.048 0.144 0.128zM13.888 21.6l-0.368 1.088h-0.256l-0.368-1.088h0.224l0.256 0.832 0.256-0.832h0.256zM14.528 21.584c0.336 0 0.496 0.24 0.496 0.544 0 0.032 0 0.064 0 0.096h-0.816c0.016 0.176 0.16 0.288 0.352 0.288 0.144 0 0.24-0.032 0.32-0.080l0.080 0.176c-0.096 0.064-0.256 0.096-0.416 0.096-0.352 0-0.592-0.24-0.592-0.56 0.032-0.304 0.256-0.56 0.576-0.56zM14.816 22.064c0-0.144-0.080-0.288-0.272-0.288-0.176 0-0.304 0.112-0.336 0.288h0.608zM15.44 21.6l0.032 0.192c0.048-0.128 0.144-0.208 0.336-0.208 0 0 0.016 0 0.016 0v0.192c-0.016 0-0.016 0-0.032 0-0.176 0-0.32 0.064-0.32 0.32v0.576h-0.224v-1.072h0.192zM16.32 21.6v1.088h-0.224v-0.88l-0.128-0.032v-0.16h0.352zM16.336 21.312c0 0.080-0.064 0.128-0.144 0.128s-0.128-0.064-0.128-0.128c0-0.080 0.064-0.128 0.128-0.128 0.080 0 0.144 0.048 0.144 0.128zM16.8 21.6l0.032 0.192c0-0.016 0.096-0.208 0.352-0.208 0.224 0 0.4 0.128 0.4 0.464v0.64h-0.224v-0.64c0-0.176-0.096-0.272-0.24-0.272-0.176 0-0.272 0.144-0.272 0.304v0.592h-0.224v-1.072h0.176zM17.936 22.544c-0.080-0.048-0.112-0.112-0.112-0.176 0-0.096 0.064-0.144 0.112-0.176-0.064-0.064-0.096-0.128-0.096-0.224 0-0.224 0.16-0.368 0.432-0.368 0.048 0 0.096 0 0.144 0.016h0.384v0.16l-0.144 0.032c0.032 0.016 0.064 0.096 0.064 0.176 0 0.256-0.224 0.352-0.432 0.352-0.064 0-0.144-0.016-0.208-0.048-0.032 0.016-0.064 0.048-0.064 0.080 0 0.128 0.256 0.112 0.368 0.112 0.224 0 0.368 0.080 0.368 0.272 0 0.24-0.256 0.304-0.48 0.304s-0.48-0.064-0.48-0.288c0.032-0.112 0.080-0.176 0.144-0.224zM18.032 22.736c0 0.096 0.16 0.128 0.272 0.128s0.272-0.016 0.272-0.128c0-0.064-0.048-0.096-0.176-0.096-0.192 0-0.208 0-0.288-0.016-0.048 0-0.080 0.048-0.080 0.112v0zM18.064 21.952c0 0.128 0.080 0.208 0.224 0.208s0.224-0.080 0.224-0.208c0-0.128-0.080-0.208-0.224-0.208-0.144 0.016-0.224 0.096-0.224 0.208zM19.776 21.168v0.592c0.032-0.064 0.128-0.176 0.336-0.176 0.224 0 0.4 0.128 0.4 0.464v0.64h-0.224v-0.64c0-0.176-0.096-0.272-0.24-0.272-0.192 0-0.272 0.144-0.272 0.304v0.592h-0.224v-1.52h0.224zM21.088 21.6v1.088h-0.224v-0.88l-0.128-0.032v-0.16h0.352zM21.088 21.312c0 0.080-0.064 0.128-0.144 0.128s-0.128-0.064-0.128-0.128c0-0.080 0.064-0.128 0.128-0.128 0.096 0 0.144 0.048 0.144 0.128zM21.568 21.6l0.032 0.192c0.048-0.128 0.144-0.208 0.336-0.208 0 0 0.016 0 0.016 0v0.192c-0.016 0-0.016 0-0.032 0-0.176 0-0.32 0.064-0.32 0.32v0.576h-0.224v-1.072h0.192zM22.608 21.584c0.336 0 0.496 0.24 0.496 0.544 0 0.032 0 0.064 0 0.096h-0.816c0.016 0.176 0.16 0.288 0.352 0.288 0.144 0 0.24-0.032 0.32-0.080l0.080 0.176c-0.096 0.064-0.256 0.096-0.416 0.096-0.352 0-0.592-0.24-0.592-0.56 0.032-0.304 0.256-0.56 0.576-0.56zM22.896 22.064c0-0.144-0.080-0.288-0.272-0.288-0.176 0-0.304 0.112-0.336 0.288h0.608zM24.176 21.6v1.088h-0.224v-0.88l-0.112-0.048v-0.16h0.336zM24.192 21.312c0 0.080-0.064 0.128-0.144 0.128s-0.128-0.064-0.128-0.128c0-0.080 0.064-0.128 0.128-0.128 0.080 0 0.144 0.048 0.144 0.128zM24.656 21.6l0.032 0.192c0-0.016 0.096-0.208 0.352-0.208 0.224 0 0.4 0.128 0.4 0.464v0.64h-0.224v-0.64c0-0.176-0.096-0.272-0.24-0.272-0.176 0-0.272 0.144-0.272 0.304v0.592h-0.224v-1.072h0.176zM25.68 22.624l0.032-0.16c0.048 0.016 0.192 0.080 0.336 0.080 0.176 0 0.224-0.048 0.224-0.144 0-0.208-0.592-0.096-0.592-0.496 0-0.208 0.192-0.304 0.384-0.304 0.144 0 0.288 0.032 0.368 0.080l-0.032 0.16c0 0-0.176-0.064-0.32-0.064s-0.208 0.048-0.208 0.128c0 0.208 0.608 0.080 0.608 0.496 0 0.224-0.176 0.32-0.416 0.32-0.144-0.016-0.304-0.064-0.384-0.096zM26.992 21.6v1.088h-0.224v-0.88l-0.128-0.032v-0.16h0.352zM27.008 21.312c0 0.080-0.064 0.128-0.144 0.128s-0.128-0.064-0.128-0.128c0-0.080 0.064-0.128 0.128-0.128 0.080 0 0.144 0.048 0.144 0.128zM27.36 22.544c-0.080-0.048-0.112-0.112-0.112-0.176 0-0.096 0.064-0.144 0.112-0.176-0.064-0.064-0.096-0.128-0.096-0.224 0-0.224 0.16-0.368 0.432-0.368 0.048 0 0.096 0 0.144 0.016h0.384v0.16l-0.144 0.032c0.032 0.016 0.064 0.096 0.064 0.176 0 0.256-0.224 0.352-0.432 0.352-0.064 0-0.144-0.016-0.208-0.048-0.032 0.016-0.064 0.048-0.064 0.080 0 0.128 0.256 0.112 0.368 0.112 0.224 0 0.368 0.080 0.368 0.272 0 0.24-0.256 0.304-0.48 0.304s-0.48-0.064-0.48-0.288c0.032-0.112 0.080-0.176 0.144-0.224zM27.456 22.736c0 0.096 0.16 0.128 0.272 0.128s0.272-0.016 0.272-0.128c0-0.064-0.048-0.096-0.176-0.096-0.192 0-0.208 0-0.288-0.016-0.048 0-0.080 0.048-0.080 0.112v0zM27.488 21.952c0 0.128 0.080 0.208 0.224 0.208s0.224-0.080 0.224-0.208c0-0.128-0.080-0.208-0.224-0.208-0.144 0.016-0.224 0.096-0.224 0.208zM28.656 21.168v0.592c0.032-0.064 0.128-0.176 0.336-0.176 0.224 0 0.4 0.128 0.4 0.464v0.64h-0.224v-0.64c0-0.176-0.096-0.272-0.24-0.272-0.192 0-0.272 0.144-0.272 0.304v0.592h-0.224v-1.52h0.224zM29.936 21.296v0.304h0.288v0.16h-0.288v0.608c0 0.112 0.032 0.16 0.144 0.16 0.048 0 0.096-0.016 0.128-0.016l0.016 0.16c-0.064 0.016-0.112 0.048-0.208 0.048-0.224 0-0.304-0.112-0.304-0.352v-0.608h-0.144v-0.128l0.144-0.016 0.032-0.32h0.192zM30.368 22.624l0.032-0.16c0.048 0.016 0.192 0.080 0.336 0.080 0.176 0 0.224-0.048 0.224-0.144 0-0.208-0.592-0.096-0.592-0.496 0-0.208 0.192-0.304 0.384-0.304 0.144 0 0.288 0.032 0.368 0.080l-0.032 0.16c0 0-0.176-0.064-0.32-0.064s-0.208 0.048-0.208 0.128c0 0.208 0.608 0.080 0.608 0.496 0 0.224-0.176 0.32-0.416 0.32-0.144-0.016-0.304-0.064-0.384-0.096zM31.664 22.56c0 0.080-0.064 0.128-0.144 0.128s-0.128-0.064-0.128-0.128 0.064-0.128 0.128-0.128c0.080 0 0.144 0.048 0.144 0.128z"></path>
</svg>
