<svg xmlns="http://www.w3.org/2000/svg" width="32" height="32" viewBox="0 0 32 32"><title>dhi-neg-i</title><path d="M23.536 10.272h-2.768v4.32l-5.104 1.984v-6.304h-2.768v12.592h2.768v-3.728l5.104-2v5.728h2.768zm1.76 12.592h2.736v-8.96l-2.736 1.072zM5.104 10.272H.192v12.576h4.912c3.952 0 6.688-2.752 6.688-6.288v-.032c0-3.536-2.736-6.256-6.688-6.256zm3.792 6.336c0 2.224-1.52 3.76-3.792 3.76H2.96v-7.584h2.144c2.272 0 3.792 1.568 3.792 3.792v.032zm16.32-3.664v-2.72l6.688-2.608v2.72l-6.688 2.608zm.16-2.608v2.384l6.368-2.48V7.856l-6.368 2.48z"/></svg>