<!-- Generated by IcoMoon.io -->
<svg version="1.1" xmlns="http://www.w3.org/2000/svg" width="32" height="32" viewBox="0 0 32 32">
<title>dhi</title>
<path d="M23.536 10.272h-2.768v4.32l-5.104 1.984v-6.304h-2.768v12.592h2.768v-3.728l5.104-2v5.728h2.768zM25.296 22.864h2.736v-8.96l-2.736 1.072zM5.104 10.272h-4.912v12.576h4.912c3.952 0 6.688-2.752 6.688-6.288v-0.032c0-3.536-2.736-6.256-6.688-6.256zM8.896 16.608c0 2.224-1.52 3.76-3.792 3.76h-2.144v-7.584h2.144c2.272 0 3.792 1.568 3.792 3.792v0.032zM31.824 7.728l-6.528 2.544v2.56l6.528-2.56z"></path>
</svg>
